# xmcd
#
# Track frame offsets: 
#        150
#        11330
#        24246
#        37565
#        59824
#        73973
#        85203
#        99333
#        111469
#        126247
#        137214
#        154756
#
# Disc length: 2248 seconds
#
# Revision: 0
# Processed by: cddbd v1.5.2PL0 Copyright (c) Steve Scherf et al.
# Submitted via: ExactAudioCopy v0.99pb3
#
DISCID=9d08c60c
DTITLE=varios - por siempre boleros vol 2
DYEAR=1900
DGENRE=Ambient
TTITLE0=historia de un amor
TTITLE1=adios mariquita linda
TTITLE2=sabras que te quiero
TTITLE3=amorcito corazon- jamas jamas
TTITLE4=sombras
TTITLE5=la ultima noche
TTITLE6=cancion del adios
TTITLE7=fichas negras
TTITLE8=no me quieras tanto
TTITLE9=muñequita de cristal
TTITLE10=contigo en la distancia
TTITLE11=brujeria
EXTD=
EXTT0=
EXTT1=
EXTT2=
EXTT3=
EXTT4=
EXTT5=
EXTT6=
EXTT7=
EXTT8=
EXTT9=
EXTT10=
EXTT11=
PLAYORDER=
